<svg viewBox="0 0 503.223 91.602" xmlns="http://www.w3.org/2000/svg"><g id="svgGroup" stroke-linecap="round" fill-rule="evenodd" font-size="9pt" stroke="#000" stroke-width="0.25mm" fill="none" style="stroke:#000;stroke-width:0.25mm;fill:none"><path d="M 58.496 40.088 L 58.496 57.275 A 17.666 17.666 0 0 1 58.309 59.791 A 21.348 21.348 0 0 1 58.081 61.084 A 19.51 19.51 0 0 1 56.842 64.94 A 21.501 21.501 0 0 1 56.787 65.063 Q 55.908 67.041 54.517 68.848 Q 53.125 70.654 51.148 72.046 A 15.938 15.938 0 0 1 48.027 73.741 A 19.225 19.225 0 0 1 46.582 74.268 Q 43.994 75.098 40.723 75.098 L 17.822 75.098 A 17.666 17.666 0 0 1 15.306 74.91 A 21.348 21.348 0 0 1 14.014 74.683 A 19.51 19.51 0 0 1 10.158 73.443 A 21.501 21.501 0 0 1 10.034 73.389 Q 8.057 72.51 6.25 71.118 Q 4.443 69.727 3.052 67.749 A 15.744 15.744 0 0 1 1.404 64.73 A 19.218 19.218 0 0 1 0.83 63.159 A 17.337 17.337 0 0 1 0.148 59.918 A 22.753 22.753 0 0 1 0 57.275 L 0 0 L 12.695 0 L 12.695 57.275 A 6.078 6.078 0 0 0 12.901 58.899 A 4.516 4.516 0 0 0 14.16 61.011 A 5.017 5.017 0 0 0 17.408 62.39 A 6.623 6.623 0 0 0 17.822 62.402 L 40.723 62.402 A 6.492 6.492 0 0 0 42.275 62.227 A 4.375 4.375 0 0 0 44.458 60.986 Q 45.801 59.57 45.801 57.275 L 45.801 40.088 A 6.492 6.492 0 0 0 45.626 38.535 A 4.375 4.375 0 0 0 44.385 36.353 A 4.827 4.827 0 0 0 41.698 35.079 A 6.666 6.666 0 0 0 40.723 35.01 L 17.822 35.01 L 17.822 22.314 L 40.723 22.314 A 17.666 17.666 0 0 1 43.239 22.502 A 21.348 21.348 0 0 1 44.531 22.729 A 19.51 19.51 0 0 1 48.387 23.969 A 21.501 21.501 0 0 1 48.511 24.023 Q 50.488 24.902 52.295 26.294 A 14.926 14.926 0 0 1 55.458 29.648 A 16.285 16.285 0 0 1 55.469 29.663 A 16.251 16.251 0 0 1 57.095 32.671 A 19.737 19.737 0 0 1 57.666 34.229 Q 58.496 36.816 58.496 40.088 Z" id="0" vector-effect="non-scaling-stroke"/><path d="M 126.758 40.088 L 126.758 57.275 A 22.245 22.245 0 0 1 126.55 60.382 A 17.001 17.001 0 0 1 125.928 63.159 A 18.619 18.619 0 0 1 124.753 66.038 A 15.321 15.321 0 0 1 123.731 67.749 A 14.948 14.948 0 0 1 120.613 71.075 A 14.204 14.204 0 0 1 120.557 71.118 A 18.521 18.521 0 0 1 116.773 73.389 A 19.451 19.451 0 0 1 112.769 74.683 A 20.798 20.798 0 0 1 110.44 75.029 A 16.981 16.981 0 0 1 108.936 75.098 L 86.035 75.098 Q 83.399 75.098 80.274 74.17 Q 77.149 73.242 74.487 71.118 A 16.257 16.257 0 0 1 71.116 67.409 A 19.917 19.917 0 0 1 70.044 65.601 A 14.704 14.704 0 0 1 68.707 61.823 Q 68.345 60.131 68.277 58.187 A 26.126 26.126 0 0 1 68.262 57.275 L 68.262 40.088 Q 68.262 35.669 69.721 32.47 A 13.198 13.198 0 0 1 70.044 31.812 A 18.559 18.559 0 0 1 72.398 28.312 A 15.587 15.587 0 0 1 74.487 26.294 Q 77.149 24.17 80.274 23.242 A 24.203 24.203 0 0 1 83.096 22.576 Q 84.634 22.314 86.035 22.314 L 108.936 22.314 A 22.688 22.688 0 0 1 112.661 22.605 Q 114.809 22.962 116.59 23.761 A 13.487 13.487 0 0 1 117.236 24.072 A 18.072 18.072 0 0 1 120.654 26.327 A 14.985 14.985 0 0 1 122.754 28.491 Q 124.854 31.152 125.806 34.277 A 23.335 23.335 0 0 1 126.512 37.247 A 17.329 17.329 0 0 1 126.758 40.088 Z M 114.063 57.275 L 114.063 40.186 A 8.378 8.378 0 0 0 113.946 38.74 Q 113.809 37.956 113.508 37.341 A 3.732 3.732 0 0 0 112.744 36.279 A 4.243 4.243 0 0 0 111.013 35.289 Q 110.359 35.088 109.572 35.032 A 8.905 8.905 0 0 0 108.936 35.01 L 86.133 35.01 Q 84.358 35.01 83.179 35.642 A 3.945 3.945 0 0 0 82.275 36.304 Q 81.107 37.451 80.974 39.537 A 8.671 8.671 0 0 0 80.957 40.088 L 80.957 57.275 Q 80.957 59.121 81.682 60.323 A 3.966 3.966 0 0 0 82.275 61.084 A 4.201 4.201 0 0 0 84.021 62.113 Q 84.683 62.321 85.485 62.379 A 8.897 8.897 0 0 0 86.133 62.402 L 108.936 62.402 A 8.063 8.063 0 0 0 110.39 62.28 Q 111.186 62.134 111.807 61.813 A 3.739 3.739 0 0 0 112.793 61.084 A 4.243 4.243 0 0 0 113.784 59.352 Q 113.984 58.699 114.04 57.912 A 8.905 8.905 0 0 0 114.063 57.275 Z" id="1" vector-effect="non-scaling-stroke"/><path d="M 184.668 40.088 L 184.668 75.098 L 171.973 75.098 L 171.973 40.088 A 7.541 7.541 0 0 0 171.844 38.648 Q 171.68 37.807 171.308 37.155 A 3.878 3.878 0 0 0 170.654 36.304 Q 169.552 35.222 167.563 35.045 A 9.177 9.177 0 0 0 166.748 35.01 L 150.244 35.01 L 150.244 75.098 L 137.549 75.098 L 137.549 28.613 A 6.277 6.277 0 0 1 137.943 26.382 A 6.005 6.005 0 0 1 138.037 26.147 Q 138.525 25 139.404 24.146 Q 140.283 23.291 141.455 22.803 A 6.409 6.409 0 0 1 143.945 22.314 L 166.846 22.314 A 17.195 17.195 0 0 1 169.936 22.608 A 22.75 22.75 0 0 1 172.51 23.242 Q 175.537 24.17 178.272 26.221 L 178.272 22.314 L 195.459 22.314 A 17.666 17.666 0 0 1 197.975 22.502 A 21.348 21.348 0 0 1 199.268 22.729 A 19.51 19.51 0 0 1 203.124 23.969 A 21.501 21.501 0 0 1 203.247 24.023 Q 205.225 24.902 207.031 26.294 A 14.926 14.926 0 0 1 210.194 29.648 A 16.285 16.285 0 0 1 210.205 29.663 A 16.251 16.251 0 0 1 211.831 32.671 A 19.737 19.737 0 0 1 212.402 34.229 Q 213.232 36.816 213.232 40.088 L 213.232 75.098 L 200.537 75.098 L 200.537 40.088 A 7.972 7.972 0 0 0 200.416 38.648 Q 200.148 37.193 199.292 36.304 Q 198.047 35.01 195.459 35.01 L 184.033 35.01 Q 184.668 37.354 184.668 40.088 Z" id="2" vector-effect="non-scaling-stroke"/><path d="M 257.031 46.289 L 286.914 75.098 L 268.604 75.098 L 243.018 50.391 A 6.081 6.081 0 0 1 241.448 48.206 Q 241.006 47.136 241.006 45.878 A 7.409 7.409 0 0 1 241.016 45.508 A 6.62 6.62 0 0 1 241.724 42.944 A 5.95 5.95 0 0 1 243.408 40.918 L 266.602 22.217 L 286.914 22.217 L 257.031 46.289 Z M 237.793 0 L 237.793 75.098 L 225.098 75.098 L 225.098 0 L 237.793 0 Z" id="3" vector-effect="non-scaling-stroke"/><path d="M 346.826 39.795 L 346.826 57.617 A 17.285 17.285 0 0 1 346.541 60.67 A 23.113 23.113 0 0 1 345.899 63.306 A 16.999 16.999 0 0 1 342.896 68.97 A 15.856 15.856 0 0 1 339.268 72.276 A 19.604 19.604 0 0 1 337.476 73.34 Q 334.327 74.995 329.902 75.092 A 25.375 25.375 0 0 1 329.346 75.098 L 306.445 75.098 A 17.285 17.285 0 0 1 303.393 74.812 A 23.113 23.113 0 0 1 300.757 74.17 A 16.999 16.999 0 0 1 295.093 71.167 A 15.856 15.856 0 0 1 291.787 67.54 A 19.604 19.604 0 0 1 290.723 65.747 Q 289.068 62.598 288.971 58.173 A 25.375 25.375 0 0 1 288.965 57.617 A 17.294 17.294 0 0 1 289.227 54.692 A 23.362 23.362 0 0 1 289.893 51.904 Q 290.82 48.828 292.896 46.216 A 15.856 15.856 0 0 1 296.523 42.91 A 19.604 19.604 0 0 1 298.315 41.846 Q 301.464 40.191 305.89 40.094 A 25.375 25.375 0 0 1 306.445 40.088 L 329.346 40.088 L 329.346 52.197 L 306.445 52.197 A 6.766 6.766 0 0 0 304.805 52.385 A 4.567 4.567 0 0 0 302.441 53.784 A 5.543 5.543 0 0 0 301.05 57.106 A 7.291 7.291 0 0 0 301.025 57.715 A 6.086 6.086 0 0 0 301.237 59.363 A 4.442 4.442 0 0 0 302.661 61.597 A 5.797 5.797 0 0 0 306.543 62.988 L 329.346 62.988 A 6.867 6.867 0 0 0 330.986 62.804 A 4.581 4.581 0 0 0 333.35 61.426 A 5.422 5.422 0 0 0 334.731 58.233 A 7.197 7.197 0 0 0 334.766 57.52 L 334.766 39.795 A 6.509 6.509 0 0 0 334.549 38.071 A 4.755 4.755 0 0 0 333.228 35.84 Q 331.69 34.375 329.346 34.375 L 301.465 34.375 L 301.465 22.314 L 329.346 22.314 A 17.285 17.285 0 0 1 332.399 22.6 A 23.113 23.113 0 0 1 335.034 23.242 A 16.999 16.999 0 0 1 340.698 26.245 A 15.856 15.856 0 0 1 344.004 29.872 A 19.604 19.604 0 0 1 345.068 31.665 Q 346.723 34.814 346.82 39.239 A 25.375 25.375 0 0 1 346.826 39.795 Z" id="4" vector-effect="non-scaling-stroke"/><path d="M 404.785 40.088 L 404.785 75.098 L 392.09 75.098 L 392.09 40.088 A 7.541 7.541 0 0 0 391.961 38.648 Q 391.797 37.807 391.425 37.155 A 3.878 3.878 0 0 0 390.772 36.304 Q 389.669 35.222 387.68 35.045 A 9.177 9.177 0 0 0 386.865 35.01 L 370.361 35.01 L 370.361 75.098 L 357.666 75.098 L 357.666 28.613 A 6.277 6.277 0 0 1 358.06 26.382 A 6.005 6.005 0 0 1 358.154 26.147 Q 358.643 25 359.522 24.146 Q 360.4 23.291 361.572 22.803 A 6.409 6.409 0 0 1 364.063 22.314 L 386.963 22.314 A 17.195 17.195 0 0 1 390.053 22.608 A 22.75 22.75 0 0 1 392.627 23.242 Q 395.654 24.17 398.389 26.221 L 398.389 22.314 L 415.576 22.314 A 17.666 17.666 0 0 1 418.092 22.502 A 21.348 21.348 0 0 1 419.385 22.729 A 19.51 19.51 0 0 1 423.241 23.969 A 21.501 21.501 0 0 1 423.364 24.023 Q 425.342 24.902 427.149 26.294 A 14.926 14.926 0 0 1 430.312 29.648 A 16.285 16.285 0 0 1 430.322 29.663 A 16.251 16.251 0 0 1 431.948 32.671 A 19.737 19.737 0 0 1 432.52 34.229 Q 433.35 36.816 433.35 40.088 L 433.35 75.098 L 420.654 75.098 L 420.654 40.088 A 7.972 7.972 0 0 0 420.533 38.648 Q 420.265 37.193 419.409 36.304 Q 418.164 35.01 415.576 35.01 L 404.15 35.01 Q 404.785 37.354 404.785 40.088 Z" id="5" vector-effect="non-scaling-stroke"/><path d="M 503.223 40.088 L 503.223 57.275 A 22.245 22.245 0 0 1 503.015 60.382 A 17.001 17.001 0 0 1 502.393 63.159 A 18.619 18.619 0 0 1 501.218 66.038 A 15.321 15.321 0 0 1 500.195 67.749 A 14.948 14.948 0 0 1 497.078 71.075 A 14.204 14.204 0 0 1 497.022 71.118 A 18.521 18.521 0 0 1 493.237 73.389 A 19.666 19.666 0 0 1 489.508 74.629 A 18.268 18.268 0 0 1 489.258 74.683 Q 487.256 75.098 485.449 75.098 L 462.549 75.098 L 462.549 62.402 L 485.449 62.402 A 7.78 7.78 0 0 0 486.895 62.277 Q 488.38 61.996 489.258 61.084 A 4.243 4.243 0 0 0 490.248 59.352 Q 490.449 58.699 490.505 57.912 A 8.905 8.905 0 0 0 490.527 57.275 L 490.527 40.186 Q 490.527 38.49 489.993 37.36 A 3.737 3.737 0 0 0 489.233 36.279 A 4.129 4.129 0 0 0 487.551 35.298 Q 486.636 35.01 485.449 35.01 L 462.647 35.01 A 8.245 8.245 0 0 0 461.155 35.136 Q 459.647 35.413 458.74 36.304 Q 457.572 37.451 457.439 39.537 A 8.671 8.671 0 0 0 457.422 40.088 L 457.422 91.602 L 444.727 91.602 L 444.727 40.088 A 22.114 22.114 0 0 1 444.934 36.987 A 16.683 16.683 0 0 1 445.557 34.229 A 17.956 17.956 0 0 1 446.814 31.232 A 15.128 15.128 0 0 1 447.778 29.663 A 15.521 15.521 0 0 1 450.642 26.56 A 14.529 14.529 0 0 1 450.977 26.294 A 18.521 18.521 0 0 1 454.761 24.023 A 19.451 19.451 0 0 1 458.765 22.729 A 21.115 21.115 0 0 1 460.93 22.397 A 16.53 16.53 0 0 1 462.549 22.314 L 485.449 22.314 A 22.114 22.114 0 0 1 488.55 22.522 A 16.683 16.683 0 0 1 491.309 23.145 A 18.546 18.546 0 0 1 494.236 24.356 A 15.471 15.471 0 0 1 495.874 25.342 A 14.948 14.948 0 0 1 499.2 28.459 A 14.204 14.204 0 0 1 499.243 28.516 A 18.521 18.521 0 0 1 501.514 32.3 A 19.666 19.666 0 0 1 502.754 36.029 A 18.268 18.268 0 0 1 502.808 36.279 Q 503.223 38.281 503.223 40.088 Z" id="6" vector-effect="non-scaling-stroke"/></g></svg>