<svg width="800" height="100" viewBox="0 0 794.287 97.998" xmlns="http://www.w3.org/2000/svg"><g id="svgGroup" stroke-linecap="round" fill-rule="evenodd" stroke="#000" stroke-width=".5mm" fill="none"><path d="M 58.496 40.088 L 58.496 80.176 A 22.245 22.245 0 0 1 58.289 83.282 A 17.001 17.001 0 0 1 57.666 86.06 A 18.619 18.619 0 0 1 56.491 88.938 A 15.321 15.321 0 0 1 55.469 90.649 A 14.948 14.948 0 0 1 52.351 93.975 A 14.204 14.204 0 0 1 52.295 94.019 A 18.521 18.521 0 0 1 48.511 96.289 A 19.451 19.451 0 0 1 44.507 97.583 A 20.798 20.798 0 0 1 42.178 97.93 A 16.981 16.981 0 0 1 40.674 97.998 L 17.774 97.998 L 17.774 85.303 L 40.674 85.303 A 8.063 8.063 0 0 0 42.128 85.18 Q 42.924 85.034 43.545 84.713 A 3.739 3.739 0 0 0 44.531 83.984 A 4.243 4.243 0 0 0 45.522 82.253 Q 45.722 81.599 45.779 80.812 A 8.905 8.905 0 0 0 45.801 80.176 L 45.801 40.088 A 7.823 7.823 0 0 0 45.677 38.648 Q 45.404 37.193 44.531 36.304 A 3.955 3.955 0 0 0 42.947 35.338 Q 42.315 35.124 41.54 35.049 A 9.056 9.056 0 0 0 40.674 35.01 L 17.774 35.01 A 6.149 6.149 0 0 0 16.168 35.208 A 4.436 4.436 0 0 0 14.063 36.45 A 4.93 4.93 0 0 0 12.722 39.485 A 6.584 6.584 0 0 0 12.695 40.088 L 12.695 57.275 Q 12.695 59.121 13.42 60.323 A 3.966 3.966 0 0 0 14.014 61.084 A 4.201 4.201 0 0 0 15.759 62.113 Q 16.422 62.321 17.223 62.379 A 8.897 8.897 0 0 0 17.871 62.402 L 40.674 62.402 L 40.674 75.098 L 17.774 75.098 A 17.666 17.666 0 0 1 15.258 74.91 A 21.348 21.348 0 0 1 13.965 74.683 A 19.51 19.51 0 0 1 10.109 73.443 A 21.501 21.501 0 0 1 9.985 73.389 Q 8.008 72.51 6.201 71.118 A 14.926 14.926 0 0 1 3.038 67.764 A 16.285 16.285 0 0 1 3.027 67.749 A 16.019 16.019 0 0 1 1.464 64.88 A 19.682 19.682 0 0 1 0.83 63.159 A 17.337 17.337 0 0 1 0.148 59.918 A 22.753 22.753 0 0 1 0 57.275 L 0 40.088 A 17.666 17.666 0 0 1 0.187 37.572 A 21.348 21.348 0 0 1 0.415 36.279 A 19.51 19.51 0 0 1 1.655 32.423 A 21.501 21.501 0 0 1 1.709 32.3 Q 2.588 30.322 3.98 28.516 A 14.926 14.926 0 0 1 7.333 25.352 A 16.285 16.285 0 0 1 7.349 25.342 A 16.251 16.251 0 0 1 10.356 23.716 A 19.737 19.737 0 0 1 11.914 23.145 Q 14.502 22.314 17.774 22.314 L 40.674 22.314 A 17.729 17.729 0 0 1 43.018 22.477 A 21.779 21.779 0 0 1 44.507 22.729 A 19.451 19.451 0 0 1 48.511 24.023 Q 50.488 24.902 52.295 26.294 A 14.926 14.926 0 0 1 55.458 29.648 A 16.285 16.285 0 0 1 55.469 29.663 A 16.251 16.251 0 0 1 57.095 32.671 A 19.737 19.737 0 0 1 57.666 34.229 Q 58.496 36.816 58.496 40.088 Z" id="0" vector-effect="non-scaling-stroke"/><path d="M 116.309 22.314 L 116.309 35.01 L 87.744 35.01 A 8.245 8.245 0 0 0 86.253 35.136 Q 84.745 35.413 83.838 36.304 Q 82.67 37.451 82.537 39.537 A 8.671 8.671 0 0 0 82.52 40.088 L 82.52 75.098 L 69.824 75.098 L 69.824 40.088 A 22.114 22.114 0 0 1 70.032 36.987 A 16.683 16.683 0 0 1 70.654 34.229 A 17.956 17.956 0 0 1 71.911 31.232 A 15.128 15.128 0 0 1 72.876 29.663 A 15.521 15.521 0 0 1 75.739 26.56 A 14.529 14.529 0 0 1 76.074 26.294 A 18.521 18.521 0 0 1 79.858 24.023 A 19.451 19.451 0 0 1 83.862 22.729 A 21.115 21.115 0 0 1 86.028 22.397 A 16.53 16.53 0 0 1 87.647 22.314 L 116.309 22.314 Z" id="1" vector-effect="non-scaling-stroke"/><path d="M 163.77 57.275 L 140.869 57.275 L 140.869 45.215 L 163.77 45.215 A 6.766 6.766 0 0 0 165.41 45.027 A 4.567 4.567 0 0 0 167.774 43.628 A 5.543 5.543 0 0 0 169.165 40.306 A 7.291 7.291 0 0 0 169.19 39.697 A 6.298 6.298 0 0 0 168.985 38.046 A 4.55 4.55 0 0 0 167.603 35.791 A 5.537 5.537 0 0 0 163.875 34.376 A 7.051 7.051 0 0 0 163.77 34.375 L 140.869 34.375 A 6.766 6.766 0 0 0 139.229 34.563 A 4.567 4.567 0 0 0 136.865 35.962 A 5.543 5.543 0 0 0 135.474 39.283 A 7.291 7.291 0 0 0 135.449 39.893 L 135.449 57.617 A 6.514 6.514 0 0 0 135.65 59.28 A 4.554 4.554 0 0 0 137.036 61.572 A 5.543 5.543 0 0 0 140.358 62.963 A 7.291 7.291 0 0 0 140.967 62.988 L 163.77 62.988 L 163.77 75.098 L 140.869 75.098 A 17.285 17.285 0 0 1 137.816 74.812 A 23.113 23.113 0 0 1 135.181 74.17 A 16.999 16.999 0 0 1 129.517 71.167 A 15.856 15.856 0 0 1 126.211 67.54 A 19.604 19.604 0 0 1 125.147 65.747 Q 123.492 62.598 123.395 58.173 A 25.375 25.375 0 0 1 123.389 57.617 L 123.389 39.795 A 17.285 17.285 0 0 1 123.674 36.742 A 23.113 23.113 0 0 1 124.316 34.106 A 16.999 16.999 0 0 1 127.319 28.442 A 15.856 15.856 0 0 1 130.947 25.136 A 19.604 19.604 0 0 1 132.739 24.072 Q 135.888 22.417 140.313 22.32 A 25.375 25.375 0 0 1 140.869 22.314 L 163.77 22.314 A 17.285 17.285 0 0 1 166.822 22.6 A 23.113 23.113 0 0 1 169.458 23.242 A 16.999 16.999 0 0 1 175.122 26.245 A 15.856 15.856 0 0 1 178.428 29.872 A 19.604 19.604 0 0 1 179.492 31.665 Q 181.147 34.814 181.244 39.239 A 25.375 25.375 0 0 1 181.25 39.795 A 17.285 17.285 0 0 1 180.965 42.848 A 23.113 23.113 0 0 1 180.322 45.483 A 16.999 16.999 0 0 1 177.319 51.147 A 15.856 15.856 0 0 1 173.692 54.453 A 19.604 19.604 0 0 1 171.899 55.518 Q 168.751 57.172 164.325 57.269 A 25.375 25.375 0 0 1 163.77 57.275 Z" id="2" vector-effect="non-scaling-stroke"/><path d="M 247.217 40.088 L 247.217 80.176 A 22.245 22.245 0 0 1 247.009 83.282 A 17.001 17.001 0 0 1 246.387 86.06 A 18.619 18.619 0 0 1 245.212 88.938 A 15.321 15.321 0 0 1 244.19 90.649 A 14.948 14.948 0 0 1 241.072 93.975 A 14.204 14.204 0 0 1 241.016 94.019 A 18.521 18.521 0 0 1 237.232 96.289 A 19.451 19.451 0 0 1 233.228 97.583 A 20.798 20.798 0 0 1 230.899 97.93 A 16.981 16.981 0 0 1 229.395 97.998 L 206.494 97.998 L 206.494 85.303 L 229.395 85.303 A 8.063 8.063 0 0 0 230.849 85.18 Q 231.645 85.034 232.266 84.713 A 3.739 3.739 0 0 0 233.252 83.984 A 4.243 4.243 0 0 0 234.243 82.253 Q 234.443 81.599 234.499 80.812 A 8.905 8.905 0 0 0 234.522 80.176 L 234.522 40.088 A 7.823 7.823 0 0 0 234.398 38.648 Q 234.125 37.193 233.252 36.304 A 3.955 3.955 0 0 0 231.668 35.338 Q 231.036 35.124 230.261 35.049 A 9.056 9.056 0 0 0 229.395 35.01 L 206.494 35.01 A 6.149 6.149 0 0 0 204.889 35.208 A 4.436 4.436 0 0 0 202.783 36.45 A 4.93 4.93 0 0 0 201.443 39.485 A 6.584 6.584 0 0 0 201.416 40.088 L 201.416 57.275 Q 201.416 59.121 202.141 60.323 A 3.966 3.966 0 0 0 202.734 61.084 A 4.201 4.201 0 0 0 204.48 62.113 Q 205.142 62.321 205.944 62.379 A 8.897 8.897 0 0 0 206.592 62.402 L 229.395 62.402 L 229.395 75.098 L 206.494 75.098 A 17.666 17.666 0 0 1 203.978 74.91 A 21.348 21.348 0 0 1 202.686 74.683 A 19.51 19.51 0 0 1 198.83 73.443 A 21.501 21.501 0 0 1 198.706 73.389 Q 196.729 72.51 194.922 71.118 A 14.926 14.926 0 0 1 191.759 67.764 A 16.285 16.285 0 0 1 191.748 67.749 A 16.019 16.019 0 0 1 190.185 64.88 A 19.682 19.682 0 0 1 189.551 63.159 A 17.337 17.337 0 0 1 188.869 59.918 A 22.753 22.753 0 0 1 188.721 57.275 L 188.721 40.088 A 17.666 17.666 0 0 1 188.908 37.572 A 21.348 21.348 0 0 1 189.136 36.279 A 19.51 19.51 0 0 1 190.375 32.423 A 21.501 21.501 0 0 1 190.43 32.3 Q 191.309 30.322 192.7 28.516 A 14.926 14.926 0 0 1 196.054 25.352 A 16.285 16.285 0 0 1 196.069 25.342 A 16.251 16.251 0 0 1 199.077 23.716 A 19.737 19.737 0 0 1 200.635 23.145 Q 203.223 22.314 206.494 22.314 L 229.395 22.314 A 17.729 17.729 0 0 1 231.739 22.477 A 21.779 21.779 0 0 1 233.228 22.729 A 19.451 19.451 0 0 1 237.232 24.023 Q 239.209 24.902 241.016 26.294 A 14.926 14.926 0 0 1 244.179 29.648 A 16.285 16.285 0 0 1 244.19 29.663 A 16.251 16.251 0 0 1 245.816 32.671 A 19.737 19.737 0 0 1 246.387 34.229 Q 247.217 36.816 247.217 40.088 Z" id="3" vector-effect="non-scaling-stroke"/><path d="M 349.561 40.088 L 349.561 57.275 A 17.666 17.666 0 0 1 349.373 59.791 A 21.348 21.348 0 0 1 349.146 61.084 A 19.51 19.51 0 0 1 347.906 64.94 A 21.501 21.501 0 0 1 347.852 65.063 Q 346.973 67.041 345.581 68.848 Q 344.19 70.654 342.212 72.046 A 15.938 15.938 0 0 1 339.092 73.741 A 19.225 19.225 0 0 1 337.647 74.268 Q 335.059 75.098 331.787 75.098 L 308.887 75.098 A 17.666 17.666 0 0 1 306.371 74.91 A 21.348 21.348 0 0 1 305.078 74.683 A 19.51 19.51 0 0 1 301.222 73.443 A 21.501 21.501 0 0 1 301.099 73.389 Q 299.121 72.51 297.315 71.118 Q 295.508 69.727 294.116 67.749 A 15.744 15.744 0 0 1 292.468 64.73 A 19.218 19.218 0 0 1 291.895 63.159 A 17.337 17.337 0 0 1 291.212 59.918 A 22.753 22.753 0 0 1 291.065 57.275 L 291.065 0 L 303.76 0 L 303.76 57.275 A 6.078 6.078 0 0 0 303.966 58.899 A 4.516 4.516 0 0 0 305.225 61.011 A 5.017 5.017 0 0 0 308.473 62.39 A 6.623 6.623 0 0 0 308.887 62.402 L 331.787 62.402 A 6.492 6.492 0 0 0 333.34 62.227 A 4.375 4.375 0 0 0 335.523 60.986 Q 336.865 59.57 336.865 57.275 L 336.865 40.088 A 6.492 6.492 0 0 0 336.69 38.535 A 4.375 4.375 0 0 0 335.449 36.353 A 4.827 4.827 0 0 0 332.762 35.079 A 6.666 6.666 0 0 0 331.787 35.01 L 308.887 35.01 L 308.887 22.314 L 331.787 22.314 A 17.666 17.666 0 0 1 334.303 22.502 A 21.348 21.348 0 0 1 335.596 22.729 A 19.51 19.51 0 0 1 339.452 23.969 A 21.501 21.501 0 0 1 339.575 24.023 Q 341.553 24.902 343.359 26.294 A 14.926 14.926 0 0 1 346.523 29.648 A 16.285 16.285 0 0 1 346.533 29.663 A 16.251 16.251 0 0 1 348.159 32.671 A 19.737 19.737 0 0 1 348.731 34.229 Q 349.561 36.816 349.561 40.088 Z" id="5" vector-effect="non-scaling-stroke"/><path d="M 417.822 40.088 L 417.822 57.275 A 22.245 22.245 0 0 1 417.615 60.382 A 17.001 17.001 0 0 1 416.992 63.159 A 18.619 18.619 0 0 1 415.817 66.038 A 15.321 15.321 0 0 1 414.795 67.749 A 14.948 14.948 0 0 1 411.678 71.075 A 14.204 14.204 0 0 1 411.621 71.118 A 18.521 18.521 0 0 1 407.837 73.389 A 19.451 19.451 0 0 1 403.833 74.683 A 20.798 20.798 0 0 1 401.504 75.029 A 16.981 16.981 0 0 1 400 75.098 L 377.1 75.098 Q 374.463 75.098 371.338 74.17 Q 368.213 73.242 365.552 71.118 A 16.257 16.257 0 0 1 362.18 67.409 A 19.917 19.917 0 0 1 361.108 65.601 A 14.704 14.704 0 0 1 359.772 61.823 Q 359.41 60.131 359.342 58.187 A 26.126 26.126 0 0 1 359.326 57.275 L 359.326 40.088 Q 359.326 35.669 360.786 32.47 A 13.198 13.198 0 0 1 361.108 31.812 A 18.559 18.559 0 0 1 363.463 28.312 A 15.587 15.587 0 0 1 365.552 26.294 Q 368.213 24.17 371.338 23.242 A 24.203 24.203 0 0 1 374.16 22.576 Q 375.699 22.314 377.1 22.314 L 400 22.314 A 22.688 22.688 0 0 1 403.726 22.605 Q 405.874 22.962 407.654 23.761 A 13.487 13.487 0 0 1 408.301 24.072 A 18.072 18.072 0 0 1 411.718 26.327 A 14.985 14.985 0 0 1 413.818 28.491 Q 415.918 31.152 416.87 34.277 A 23.335 23.335 0 0 1 417.577 37.247 A 17.329 17.329 0 0 1 417.822 40.088 Z M 405.127 57.275 L 405.127 40.186 A 8.378 8.378 0 0 0 405.011 38.74 Q 404.873 37.956 404.573 37.341 A 3.732 3.732 0 0 0 403.809 36.279 A 4.243 4.243 0 0 0 402.077 35.289 Q 401.423 35.088 400.636 35.032 A 8.905 8.905 0 0 0 400 35.01 L 377.197 35.01 Q 375.422 35.01 374.243 35.642 A 3.945 3.945 0 0 0 373.34 36.304 Q 372.171 37.451 372.039 39.537 A 8.671 8.671 0 0 0 372.022 40.088 L 372.022 57.275 Q 372.022 59.121 372.746 60.323 A 3.966 3.966 0 0 0 373.34 61.084 A 4.201 4.201 0 0 0 375.085 62.113 Q 375.748 62.321 376.549 62.379 A 8.897 8.897 0 0 0 377.197 62.402 L 400 62.402 A 8.063 8.063 0 0 0 401.455 62.28 Q 402.25 62.134 402.871 61.813 A 3.739 3.739 0 0 0 403.857 61.084 A 4.243 4.243 0 0 0 404.848 59.352 Q 405.049 58.699 405.105 57.912 A 8.905 8.905 0 0 0 405.127 57.275 Z" id="6" vector-effect="non-scaling-stroke"/><path d="M 475.732 40.088 L 475.732 75.098 L 463.037 75.098 L 463.037 40.088 A 7.541 7.541 0 0 0 462.908 38.648 Q 462.745 37.807 462.373 37.155 A 3.878 3.878 0 0 0 461.719 36.304 Q 460.617 35.222 458.628 35.045 A 9.177 9.177 0 0 0 457.813 35.01 L 441.309 35.01 L 441.309 75.098 L 428.613 75.098 L 428.613 28.613 A 6.277 6.277 0 0 1 429.007 26.382 A 6.005 6.005 0 0 1 429.102 26.147 Q 429.59 25 430.469 24.146 Q 431.348 23.291 432.52 22.803 A 6.409 6.409 0 0 1 435.01 22.314 L 457.91 22.314 A 17.195 17.195 0 0 1 461 22.608 A 22.75 22.75 0 0 1 463.574 23.242 Q 466.602 24.17 469.336 26.221 L 469.336 22.314 L 486.524 22.314 A 17.666 17.666 0 0 1 489.039 22.502 A 21.348 21.348 0 0 1 490.332 22.729 A 19.51 19.51 0 0 1 494.188 23.969 A 21.501 21.501 0 0 1 494.312 24.023 Q 496.289 24.902 498.096 26.294 A 14.926 14.926 0 0 1 501.259 29.648 A 16.285 16.285 0 0 1 501.27 29.663 A 16.251 16.251 0 0 1 502.896 32.671 A 19.737 19.737 0 0 1 503.467 34.229 Q 504.297 36.816 504.297 40.088 L 504.297 75.098 L 491.602 75.098 L 491.602 40.088 A 7.972 7.972 0 0 0 491.48 38.648 Q 491.213 37.193 490.357 36.304 Q 489.111 35.01 486.524 35.01 L 475.098 35.01 Q 475.732 37.354 475.732 40.088 Z" id="7" vector-effect="non-scaling-stroke"/><path d="M 548.096 46.289 L 577.979 75.098 L 559.668 75.098 L 534.082 50.391 A 6.081 6.081 0 0 1 532.513 48.206 Q 532.071 47.136 532.071 45.878 A 7.409 7.409 0 0 1 532.08 45.508 A 6.62 6.62 0 0 1 532.788 42.944 A 5.95 5.95 0 0 1 534.473 40.918 L 557.666 22.217 L 577.979 22.217 L 548.096 46.289 Z M 528.857 0 L 528.857 75.098 L 516.162 75.098 L 516.162 0 L 528.857 0 Z" id="8" vector-effect="non-scaling-stroke"/><path d="M 637.891 39.795 L 637.891 57.617 A 17.285 17.285 0 0 1 637.605 60.67 A 23.113 23.113 0 0 1 636.963 63.306 A 16.999 16.999 0 0 1 633.96 68.97 A 15.856 15.856 0 0 1 630.333 72.276 A 19.604 19.604 0 0 1 628.54 73.34 Q 625.391 74.995 620.966 75.092 A 25.375 25.375 0 0 1 620.41 75.098 L 597.51 75.098 A 17.285 17.285 0 0 1 594.457 74.812 A 23.113 23.113 0 0 1 591.821 74.17 A 16.999 16.999 0 0 1 586.157 71.167 A 15.856 15.856 0 0 1 582.851 67.54 A 19.604 19.604 0 0 1 581.787 65.747 Q 580.132 62.598 580.035 58.173 A 25.375 25.375 0 0 1 580.029 57.617 A 17.294 17.294 0 0 1 580.291 54.692 A 23.362 23.362 0 0 1 580.957 51.904 Q 581.885 48.828 583.96 46.216 A 15.856 15.856 0 0 1 587.587 42.91 A 19.604 19.604 0 0 1 589.38 41.846 Q 592.529 40.191 596.954 40.094 A 25.375 25.375 0 0 1 597.51 40.088 L 620.41 40.088 L 620.41 52.197 L 597.51 52.197 A 6.766 6.766 0 0 0 595.869 52.385 A 4.567 4.567 0 0 0 593.506 53.784 A 5.543 5.543 0 0 0 592.115 57.106 A 7.291 7.291 0 0 0 592.09 57.715 A 6.086 6.086 0 0 0 592.301 59.363 A 4.442 4.442 0 0 0 593.726 61.597 A 5.797 5.797 0 0 0 597.607 62.988 L 620.41 62.988 A 6.867 6.867 0 0 0 622.051 62.804 A 4.581 4.581 0 0 0 624.414 61.426 A 5.422 5.422 0 0 0 625.796 58.233 A 7.197 7.197 0 0 0 625.83 57.52 L 625.83 39.795 A 6.509 6.509 0 0 0 625.614 38.071 A 4.755 4.755 0 0 0 624.292 35.84 Q 622.754 34.375 620.41 34.375 L 592.529 34.375 L 592.529 22.314 L 620.41 22.314 A 17.285 17.285 0 0 1 623.463 22.6 A 23.113 23.113 0 0 1 626.099 23.242 A 16.999 16.999 0 0 1 631.763 26.245 A 15.856 15.856 0 0 1 635.069 29.872 A 19.604 19.604 0 0 1 636.133 31.665 Q 637.788 34.814 637.885 39.239 A 25.375 25.375 0 0 1 637.891 39.795 Z" id="9" vector-effect="non-scaling-stroke"/><path d="M 695.85 40.088 L 695.85 75.098 L 683.154 75.098 L 683.154 40.088 A 7.541 7.541 0 0 0 683.026 38.648 Q 682.862 37.807 682.49 37.155 A 3.878 3.878 0 0 0 681.836 36.304 Q 680.734 35.222 678.745 35.045 A 9.177 9.177 0 0 0 677.93 35.01 L 661.426 35.01 L 661.426 75.098 L 648.731 75.098 L 648.731 28.613 A 6.277 6.277 0 0 1 649.125 26.382 A 6.005 6.005 0 0 1 649.219 26.147 Q 649.707 25 650.586 24.146 Q 651.465 23.291 652.637 22.803 A 6.409 6.409 0 0 1 655.127 22.314 L 678.027 22.314 A 17.195 17.195 0 0 1 681.117 22.608 A 22.75 22.75 0 0 1 683.691 23.242 Q 686.719 24.17 689.453 26.221 L 689.453 22.314 L 706.641 22.314 A 17.666 17.666 0 0 1 709.157 22.502 A 21.348 21.348 0 0 1 710.449 22.729 A 19.51 19.51 0 0 1 714.305 23.969 A 21.501 21.501 0 0 1 714.429 24.023 Q 716.406 24.902 718.213 26.294 A 14.926 14.926 0 0 1 721.376 29.648 A 16.285 16.285 0 0 1 721.387 29.663 A 16.251 16.251 0 0 1 723.013 32.671 A 19.737 19.737 0 0 1 723.584 34.229 Q 724.414 36.816 724.414 40.088 L 724.414 75.098 L 711.719 75.098 L 711.719 40.088 A 7.972 7.972 0 0 0 711.597 38.648 Q 711.33 37.193 710.474 36.304 Q 709.229 35.01 706.641 35.01 L 695.215 35.01 Q 695.85 37.354 695.85 40.088 Z" id="10" vector-effect="non-scaling-stroke"/><path d="M 794.287 40.088 L 794.287 57.275 A 22.245 22.245 0 0 1 794.08 60.382 A 17.001 17.001 0 0 1 793.457 63.159 A 18.619 18.619 0 0 1 792.282 66.038 A 15.321 15.321 0 0 1 791.26 67.749 A 14.948 14.948 0 0 1 788.142 71.075 A 14.204 14.204 0 0 1 788.086 71.118 A 18.521 18.521 0 0 1 784.302 73.389 A 19.666 19.666 0 0 1 780.572 74.629 A 18.268 18.268 0 0 1 780.322 74.683 Q 778.32 75.098 776.514 75.098 L 753.613 75.098 L 753.613 62.402 L 776.514 62.402 A 7.78 7.78 0 0 0 777.96 62.277 Q 779.445 61.996 780.322 61.084 A 4.243 4.243 0 0 0 781.313 59.352 Q 781.513 58.699 781.57 57.912 A 8.905 8.905 0 0 0 781.592 57.275 L 781.592 40.186 Q 781.592 38.49 781.057 37.36 A 3.737 3.737 0 0 0 780.298 36.279 A 4.129 4.129 0 0 0 778.616 35.298 Q 777.7 35.01 776.514 35.01 L 753.711 35.01 A 8.245 8.245 0 0 0 752.22 35.136 Q 750.712 35.413 749.805 36.304 Q 748.636 37.451 748.503 39.537 A 8.671 8.671 0 0 0 748.486 40.088 L 748.486 91.602 L 735.791 91.602 L 735.791 40.088 A 22.114 22.114 0 0 1 735.999 36.987 A 16.683 16.683 0 0 1 736.621 34.229 A 17.956 17.956 0 0 1 737.878 31.232 A 15.128 15.128 0 0 1 738.843 29.663 A 15.521 15.521 0 0 1 741.706 26.56 A 14.529 14.529 0 0 1 742.041 26.294 A 18.521 18.521 0 0 1 745.825 24.023 A 19.451 19.451 0 0 1 749.829 22.729 A 21.115 21.115 0 0 1 751.995 22.397 A 16.53 16.53 0 0 1 753.613 22.314 L 776.514 22.314 A 22.114 22.114 0 0 1 779.614 22.522 A 16.683 16.683 0 0 1 782.373 23.145 A 18.546 18.546 0 0 1 785.3 24.356 A 15.471 15.471 0 0 1 786.939 25.342 A 14.948 14.948 0 0 1 790.264 28.459 A 14.204 14.204 0 0 1 790.308 28.516 A 18.521 18.521 0 0 1 792.578 32.3 A 19.666 19.666 0 0 1 793.818 36.029 A 18.268 18.268 0 0 1 793.872 36.279 Q 794.287 38.281 794.287 40.088 Z" id="11" vector-effect="non-scaling-stroke"/></g></svg>