<svg viewBox="0 0 247.217 75.684" xmlns="http://www.w3.org/2000/svg"><g id="svgGroup" stroke-linecap="round" fill-rule="evenodd" font-size="9pt" stroke="#000" stroke-width="0.25mm" fill="none" style="stroke:#000;stroke-width:0.25mm;fill:none"><path d="M 58.496 17.774 L 58.496 57.861 A 22.245 22.245 0 0 1 58.289 60.968 A 17.001 17.001 0 0 1 57.666 63.745 A 18.619 18.619 0 0 1 56.491 66.624 A 15.321 15.321 0 0 1 55.469 68.335 A 14.948 14.948 0 0 1 52.351 71.661 A 14.204 14.204 0 0 1 52.295 71.704 A 18.521 18.521 0 0 1 48.511 73.975 A 19.451 19.451 0 0 1 44.507 75.269 A 20.798 20.798 0 0 1 42.178 75.615 A 16.981 16.981 0 0 1 40.674 75.684 L 17.774 75.684 L 17.774 62.988 L 40.674 62.988 A 8.063 8.063 0 0 0 42.128 62.866 Q 42.924 62.72 43.545 62.399 A 3.739 3.739 0 0 0 44.531 61.67 A 4.243 4.243 0 0 0 45.522 59.939 Q 45.722 59.285 45.779 58.498 A 8.905 8.905 0 0 0 45.801 57.861 L 45.801 17.774 A 7.823 7.823 0 0 0 45.677 16.334 Q 45.404 14.879 44.531 13.989 A 3.955 3.955 0 0 0 42.947 13.024 Q 42.315 12.81 41.54 12.735 A 9.056 9.056 0 0 0 40.674 12.695 L 17.774 12.695 A 6.149 6.149 0 0 0 16.168 12.894 A 4.436 4.436 0 0 0 14.063 14.136 A 4.93 4.93 0 0 0 12.722 17.171 A 6.584 6.584 0 0 0 12.695 17.774 L 12.695 34.961 Q 12.695 36.807 13.42 38.009 A 3.966 3.966 0 0 0 14.014 38.77 A 4.201 4.201 0 0 0 15.759 39.798 Q 16.422 40.006 17.223 40.065 A 8.897 8.897 0 0 0 17.871 40.088 L 40.674 40.088 L 40.674 52.783 L 17.774 52.783 A 17.666 17.666 0 0 1 15.258 52.596 A 21.348 21.348 0 0 1 13.965 52.368 A 19.51 19.51 0 0 1 10.109 51.129 A 21.501 21.501 0 0 1 9.985 51.074 Q 8.008 50.195 6.201 48.804 A 14.926 14.926 0 0 1 3.038 45.45 A 16.285 16.285 0 0 1 3.027 45.435 A 16.019 16.019 0 0 1 1.464 42.566 A 19.682 19.682 0 0 1 0.83 40.845 A 17.337 17.337 0 0 1 0.148 37.604 A 22.753 22.753 0 0 1 0 34.961 L 0 17.774 A 17.666 17.666 0 0 1 0.187 15.258 A 21.348 21.348 0 0 1 0.415 13.965 A 19.51 19.51 0 0 1 1.655 10.109 A 21.501 21.501 0 0 1 1.709 9.985 Q 2.588 8.008 3.98 6.201 A 14.926 14.926 0 0 1 7.333 3.038 A 16.285 16.285 0 0 1 7.349 3.027 A 16.251 16.251 0 0 1 10.356 1.401 A 19.737 19.737 0 0 1 11.914 0.83 Q 14.502 0 17.774 0 L 40.674 0 A 17.729 17.729 0 0 1 43.018 0.162 A 21.779 21.779 0 0 1 44.507 0.415 A 19.451 19.451 0 0 1 48.511 1.709 Q 50.488 2.588 52.295 3.98 A 14.926 14.926 0 0 1 55.458 7.333 A 16.285 16.285 0 0 1 55.469 7.349 A 16.251 16.251 0 0 1 57.095 10.356 A 19.737 19.737 0 0 1 57.666 11.914 Q 58.496 14.502 58.496 17.774 Z" id="0" vector-effect="non-scaling-stroke"/><path d="M 116.309 0 L 116.309 12.695 L 87.744 12.695 A 8.245 8.245 0 0 0 86.253 12.821 Q 84.745 13.099 83.838 13.989 Q 82.67 15.136 82.537 17.223 A 8.671 8.671 0 0 0 82.52 17.774 L 82.52 52.783 L 69.824 52.783 L 69.824 17.774 A 22.114 22.114 0 0 1 70.032 14.673 A 16.683 16.683 0 0 1 70.654 11.914 A 17.956 17.956 0 0 1 71.911 8.918 A 15.128 15.128 0 0 1 72.876 7.349 A 15.521 15.521 0 0 1 75.739 4.246 A 14.529 14.529 0 0 1 76.074 3.98 A 18.521 18.521 0 0 1 79.858 1.709 A 19.451 19.451 0 0 1 83.862 0.415 A 21.115 21.115 0 0 1 86.028 0.082 A 16.53 16.53 0 0 1 87.647 0 L 116.309 0 Z" id="1" vector-effect="non-scaling-stroke"/><path d="M 163.77 34.961 L 140.869 34.961 L 140.869 22.9 L 163.77 22.9 A 6.766 6.766 0 0 0 165.41 22.713 A 4.567 4.567 0 0 0 167.774 21.314 A 5.543 5.543 0 0 0 169.165 17.992 A 7.291 7.291 0 0 0 169.19 17.383 A 6.298 6.298 0 0 0 168.985 15.732 A 4.55 4.55 0 0 0 167.603 13.477 A 5.537 5.537 0 0 0 163.875 12.061 A 7.051 7.051 0 0 0 163.77 12.061 L 140.869 12.061 A 6.766 6.766 0 0 0 139.229 12.248 A 4.567 4.567 0 0 0 136.865 13.648 A 5.543 5.543 0 0 0 135.474 16.969 A 7.291 7.291 0 0 0 135.449 17.578 L 135.449 35.303 A 6.514 6.514 0 0 0 135.65 36.966 A 4.554 4.554 0 0 0 137.036 39.258 A 5.543 5.543 0 0 0 140.358 40.649 A 7.291 7.291 0 0 0 140.967 40.674 L 163.77 40.674 L 163.77 52.783 L 140.869 52.783 A 17.285 17.285 0 0 1 137.816 52.498 A 23.113 23.113 0 0 1 135.181 51.856 A 16.999 16.999 0 0 1 129.517 48.853 A 15.856 15.856 0 0 1 126.211 45.225 A 19.604 19.604 0 0 1 125.147 43.433 Q 123.492 40.284 123.395 35.859 A 25.375 25.375 0 0 1 123.389 35.303 L 123.389 17.481 A 17.285 17.285 0 0 1 123.674 14.428 A 23.113 23.113 0 0 1 124.316 11.792 A 16.999 16.999 0 0 1 127.319 6.128 A 15.856 15.856 0 0 1 130.947 2.822 A 19.604 19.604 0 0 1 132.739 1.758 Q 135.888 0.103 140.313 0.006 A 25.375 25.375 0 0 1 140.869 0 L 163.77 0 A 17.285 17.285 0 0 1 166.822 0.286 A 23.113 23.113 0 0 1 169.458 0.928 A 16.999 16.999 0 0 1 175.122 3.931 A 15.856 15.856 0 0 1 178.428 7.558 A 19.604 19.604 0 0 1 179.492 9.351 Q 181.147 12.499 181.244 16.925 A 25.375 25.375 0 0 1 181.25 17.481 A 17.285 17.285 0 0 1 180.965 20.533 A 23.113 23.113 0 0 1 180.322 23.169 A 16.999 16.999 0 0 1 177.319 28.833 A 15.856 15.856 0 0 1 173.692 32.139 A 19.604 19.604 0 0 1 171.899 33.203 Q 168.751 34.858 164.325 34.955 A 25.375 25.375 0 0 1 163.77 34.961 Z" id="2" vector-effect="non-scaling-stroke"/><path d="M 247.217 17.774 L 247.217 57.861 A 22.245 22.245 0 0 1 247.009 60.968 A 17.001 17.001 0 0 1 246.387 63.745 A 18.619 18.619 0 0 1 245.212 66.624 A 15.321 15.321 0 0 1 244.19 68.335 A 14.948 14.948 0 0 1 241.072 71.661 A 14.204 14.204 0 0 1 241.016 71.704 A 18.521 18.521 0 0 1 237.232 73.975 A 19.451 19.451 0 0 1 233.228 75.269 A 20.798 20.798 0 0 1 230.899 75.615 A 16.981 16.981 0 0 1 229.395 75.684 L 206.494 75.684 L 206.494 62.988 L 229.395 62.988 A 8.063 8.063 0 0 0 230.849 62.866 Q 231.645 62.72 232.266 62.399 A 3.739 3.739 0 0 0 233.252 61.67 A 4.243 4.243 0 0 0 234.243 59.939 Q 234.443 59.285 234.499 58.498 A 8.905 8.905 0 0 0 234.522 57.861 L 234.522 17.774 A 7.823 7.823 0 0 0 234.398 16.334 Q 234.125 14.879 233.252 13.989 A 3.955 3.955 0 0 0 231.668 13.024 Q 231.036 12.81 230.261 12.735 A 9.056 9.056 0 0 0 229.395 12.695 L 206.494 12.695 A 6.149 6.149 0 0 0 204.889 12.894 A 4.436 4.436 0 0 0 202.783 14.136 A 4.93 4.93 0 0 0 201.443 17.171 A 6.584 6.584 0 0 0 201.416 17.774 L 201.416 34.961 Q 201.416 36.807 202.141 38.009 A 3.966 3.966 0 0 0 202.734 38.77 A 4.201 4.201 0 0 0 204.48 39.798 Q 205.142 40.006 205.944 40.065 A 8.897 8.897 0 0 0 206.592 40.088 L 229.395 40.088 L 229.395 52.783 L 206.494 52.783 A 17.666 17.666 0 0 1 203.978 52.596 A 21.348 21.348 0 0 1 202.686 52.368 A 19.51 19.51 0 0 1 198.83 51.129 A 21.501 21.501 0 0 1 198.706 51.074 Q 196.729 50.195 194.922 48.804 A 14.926 14.926 0 0 1 191.759 45.45 A 16.285 16.285 0 0 1 191.748 45.435 A 16.019 16.019 0 0 1 190.185 42.566 A 19.682 19.682 0 0 1 189.551 40.845 A 17.337 17.337 0 0 1 188.869 37.604 A 22.753 22.753 0 0 1 188.721 34.961 L 188.721 17.774 A 17.666 17.666 0 0 1 188.908 15.258 A 21.348 21.348 0 0 1 189.136 13.965 A 19.51 19.51 0 0 1 190.375 10.109 A 21.501 21.501 0 0 1 190.43 9.985 Q 191.309 8.008 192.7 6.201 A 14.926 14.926 0 0 1 196.054 3.038 A 16.285 16.285 0 0 1 196.069 3.027 A 16.251 16.251 0 0 1 199.077 1.401 A 19.737 19.737 0 0 1 200.635 0.83 Q 203.223 0 206.494 0 L 229.395 0 A 17.729 17.729 0 0 1 231.739 0.162 A 21.779 21.779 0 0 1 233.228 0.415 A 19.451 19.451 0 0 1 237.232 1.709 Q 239.209 2.588 241.016 3.98 A 14.926 14.926 0 0 1 244.179 7.333 A 16.285 16.285 0 0 1 244.19 7.349 A 16.251 16.251 0 0 1 245.816 10.356 A 19.737 19.737 0 0 1 246.387 11.914 Q 247.217 14.502 247.217 17.774 Z" id="3" vector-effect="non-scaling-stroke"/></g></svg>